<svg xmlns="http://www.w3.org/2000/svg" xmlns:xlink="http://www.w3.org/1999/xlink" xmlns:lucid="lucid" width="1672.49" height="829"><g transform="translate(-120 -80)" lucid:page-tab-id="0_0"><path d="M140 106a6 6 0 0 1 6-6h132a6 6 0 0 1 6 6v96c-24.05-17.03-39.02-17.03-48.1-17.03-14.4 0-33.55 17.03-47.95 17.03-8.93 0-24.05 0-47.95-17.03z" stroke="#5e5e5e" stroke-width="3" fill="#c3f7c8"/><path d="M148 115a6 6 0 0 1 6-6h132a6 6 0 0 1 6 6v96c-24.05-17.03-39.02-17.03-48.1-17.03-14.4 0-33.55 17.03-47.95 17.03-8.93 0-24.05 0-47.95-17.03z" stroke="#5e5e5e" stroke-width="3" fill="#c3f7c8"/><path d="M156 124a6 6 0 0 1 6-6h132a6 6 0 0 1 6 6v96c-24.05-17.03-39.02-17.03-48.1-17.03-14.4 0-33.55 17.03-47.95 17.03-8.93 0-24.05 0-47.95-17.03z" stroke="#5e5e5e" stroke-width="3" fill="#c3f7c8"/><use xlink:href="#a" transform="matrix(1,0,0,1,161,123) translate(9.771604938271608 24.80902777777778)"/><use xlink:href="#b" transform="matrix(1,0,0,1,161,123) translate(17.148148148148145 51.47569444444445)"/><path d="M140 296a6 6 0 0 1 6-6h132a6 6 0 0 1 6 6v96c-24.05-17.03-39.02-17.03-48.1-17.03-14.4 0-33.55 17.03-47.95 17.03-8.93 0-24.05 0-47.95-17.03z" stroke="#5e5e5e" stroke-width="3" fill="#c3f7c8"/><path d="M148 305a6 6 0 0 1 6-6h132a6 6 0 0 1 6 6v96c-24.05-17.03-39.02-17.03-48.1-17.03-14.4 0-33.55 17.03-47.95 17.03-8.93 0-24.05 0-47.95-17.03z" stroke="#5e5e5e" stroke-width="3" fill="#c3f7c8"/><path d="M156 314a6 6 0 0 1 6-6h132a6 6 0 0 1 6 6v96c-24.05-17.03-39.02-17.03-48.1-17.03-14.4 0-33.55 17.03-47.95 17.03-8.93 0-24.05 0-47.95-17.03z" stroke="#5e5e5e" stroke-width="3" fill="#c3f7c8"/><use xlink:href="#c" transform="matrix(1,0,0,1,161,313) translate(2.925925925925924 28.611111111111114)"/><use xlink:href="#d" transform="matrix(1,0,0,1,161,313) translate(57.123456790123456 28.611111111111114)"/><use xlink:href="#e" transform="matrix(1,0,0,1,161,313) translate(22.648148148148145 55.27777777777778)"/><path d="M140 486a6 6 0 0 1 6-6h132a6 6 0 0 1 6 6v96c-24.05-17.03-39.02-17.03-48.1-17.03-14.4 0-33.55 17.03-47.95 17.03-8.93 0-24.05 0-47.95-17.03z" stroke="#5e5e5e" stroke-width="3" fill="#c3f7c8"/><path d="M148 495a6 6 0 0 1 6-6h132a6 6 0 0 1 6 6v96c-24.05-17.03-39.02-17.03-48.1-17.03-14.4 0-33.55 17.03-47.95 17.03-8.93 0-24.05 0-47.95-17.03z" stroke="#5e5e5e" stroke-width="3" fill="#c3f7c8"/><path d="M156 504a6 6 0 0 1 6-6h132a6 6 0 0 1 6 6v96c-24.05-17.03-39.02-17.03-48.1-17.03-14.4 0-33.55 17.03-47.95 17.03-8.93 0-24.05 0-47.95-17.03z" stroke="#5e5e5e" stroke-width="3" fill="#c3f7c8"/><use xlink:href="#f" transform="matrix(1,0,0,1,161,503) translate(-6.985185185185188 28.96666666666667)"/><use xlink:href="#g" transform="matrix(1,0,0,1,161,503) translate(24.422222222222217 54.56666666666667)"/><path d="M480 290h120v120H480V290z" stroke="#000" stroke-opacity="0" fill="url(#h)"/><path d="M573.76 320.94v1l-3.24 24.26.16.17c5.68 3.05 8.45 5.53 8.84 7.76.24 1.07-.08 2.06-.7 2.8-.8 1-2.06 1.4-3.88 1.4-1.5 0-3.47-.32-5.84-.9l-3.16 24.52c-1.34 8.42-20.53 9.33-28.74 9.33-8.2 0-27.4-.9-28.74-9.33l-7.82-60.02v-1c0-5.77 15.63-12.2 36.56-12.2 20.92 0 36.56 6.43 36.56 12.2zm-7.82 31.62l3.24-25.43c-6.56 3.96-19.35 5.94-31.98 5.94-12.63 0-25.43-1.98-31.98-5.94l6.95 54.32c.47 2.98 9.24 6.12 25.03 6.12 15.8 0 24.55-3.14 25.03-6.2l3.24-25c-9.32-3-21.48-8.6-25.98-10.66-.64.42-1.43.75-2.3.75-2.13 0-3.87-1.82-3.87-3.96 0-2.16 1.74-3.98 3.87-3.98s3.8 1.74 3.95 3.8c4.34 1.98 15.87 7.27 24.8 10.24zm-28.74-23.2c19.58 0 32.3-4.8 32.85-8.26v-.16c-.7-2.15-11.6-8.5-32.85-8.5-21.32 0-32.14 6.44-32.85 8.5v.33c.8 3.38 13.42 8.1 32.85 8.1zm32.37 24.27c3.87 1.08 5.53 1 6.16.9-.4-.57-1.66-1.97-5.76-4.28z" stroke="#000" stroke-opacity="0" fill="#fff"/><use xlink:href="#i" transform="matrix(1,0,0,1,450,419) translate(18.61458333333333 22.802083333333336)"/><use xlink:href="#j" transform="matrix(1,0,0,1,450,419) translate(109.19791666666667 22.802083333333336)"/><path d="M740 290h120v120H740V290z" stroke="#fff" stroke-opacity="0" stroke-width="2" fill="#693cc5"/><path d="M800.1 390c-.4 0-.74-.1-1.03-.37l-9.7-8c-.53-.45-.7-1.13-.5-1.77.26-.64.84-1.06 1.54-1.06h4.8V374h3.2v6.4c0 .88-.72 1.6-1.6 1.6h-1.96l5.24 4.32 5.13-4.32h-2c-.88 0-1.6-.72-1.6-1.6V374h3.2v4.8h4.8c.9.02 1.58.74 1.58 1.62 0 .48-.2.88-.55 1.2l-9.52 8c-.28.25-.62.38-1 .38zM814.34 330l-.36 3.2c2.76.2 5.07.68 7.73 1.62-2.86 1.23-10.8 2.38-21.7 2.38-11.22 0-19.2-1.28-21.76-2.38 2.3-.98 8.96-2.3 20.17-2.43v-3.2c-21.75.2-24 4-24 5.62v.3c.05.2.1.38.2.55l.3.55c.1.17.16.25.26.38.16.17.36.3.5.43l17.94 27.9v4.3c0 .7.4 1.24 1.02 1.5 1.84.67 3.53 1 5.48 1 1.9 0 3.53-.33 5.27-1.05.62-.25 1.03-.8 1.03-1.45v-4.3l17.82-27.9c.87-.47 1.33-1.28 1.38-2.2 0-1.76-1.33-3.63-11.26-4.82zm-10.86 33.62c-.2.25-.26.5-.26.85v3.6c-2.2.7-4.25.7-6.4 0v-3.6c0-.34-.1-.6-.25-.85l-15.93-24.85c6.76 1.24 12.55 1.7 19.36 1.62 6.8.07 12.6-.4 19.3-1.63z" stroke="#fff" stroke-opacity="0" stroke-width="2" fill="#fff"/><path d="M809.6 334h-6.4c-.88 0-1.6-.72-1.6-1.6V326c0-.88.72-1.6 1.6-1.6h6.4c.88 0 1.6.72 1.6 1.6v6.4c0 .88-.72 1.6-1.6 1.6zm-4.8-3.2h3.2v-3.2h-3.2zM806.4 319.6H800c-.88 0-1.6-.72-1.6-1.6v-6.4c0-.88.72-1.6 1.6-1.6h6.4c.88 0 1.6.72 1.6 1.6v6.4c0 .88-.72 1.6-1.6 1.6zm-4.8-3.2h3.2v-3.2h-3.2zM793.6 327.6h-6.4c-.88 0-1.6-.72-1.6-1.6v-6.4c0-.88.72-1.6 1.6-1.6h6.4c.88 0 1.6.72 1.6 1.6v6.4c0 .88-.72 1.6-1.6 1.6zm-4.8-3.2h3.2v-3.2h-3.2z" stroke="#fff" stroke-opacity="0" stroke-width="2" fill="#fff"/><use xlink:href="#k" transform="matrix(1,0,0,1,710,419) translate(42.561728395061735 17.77777777777778)"/><use xlink:href="#l" transform="matrix(1,0,0,1,710,419) translate(98.05555555555556 17.77777777777778)"/><path d="M1340 290h120v120h-120V290z" stroke="#fff" stroke-opacity="0" stroke-width="2" fill="#693cc5"/><path d="M1400.1 390c-.4 0-.74-.1-1.03-.37l-9.7-8c-.53-.45-.7-1.13-.48-1.77h-.02c.25-.64.83-1.06 1.53-1.06h4.8V374h3.2v6.4c0 .88-.72 1.6-1.6 1.6h-1.96l5.24 4.32 5.13-4.32h-2c-.88 0-1.6-.72-1.6-1.6V374h3.2v4.8h4.8c.9.02 1.58.74 1.58 1.62 0 .48-.2.88-.56 1.2l-9.5 8c-.3.25-.64.38-1.02.38zM1414.34 330l-.36 3.2c2.76.2 5.07.68 7.73 1.62-2.86 1.23-10.8 2.38-21.7 2.38-11.22 0-19.2-1.28-21.77-2.38 2.3-.98 8.97-2.3 20.18-2.43v-3.2c-21.75.2-24 4-24 5.62v.3c.05.2.1.38.2.55l.3.55c.1.17.16.25.26.38.16.17.36.3.5.43l17.94 27.9v4.3c0 .7.4 1.24 1.02 1.5 1.84.67 3.53 1 5.48 1 1.9 0 3.53-.33 5.27-1.05.62-.25 1.03-.8 1.03-1.45v-4.3l17.82-27.9c.87-.47 1.33-1.28 1.38-2.2 0-1.76-1.33-3.63-11.26-4.82zm-10.86 33.62c-.2.25-.26.5-.26.85v3.6c-2.2.7-4.25.7-6.4 0v-3.6c0-.34-.1-.6-.25-.85l-15.93-24.85c6.76 1.24 12.55 1.7 19.36 1.62 6.8.07 12.6-.4 19.3-1.63z" stroke="#fff" stroke-opacity="0" stroke-width="2" fill="#fff"/><path d="M1409.6 334h-6.4c-.88 0-1.6-.72-1.6-1.6V326c0-.88.72-1.6 1.6-1.6h6.4c.88 0 1.6.72 1.6 1.6v6.4c0 .88-.72 1.6-1.6 1.6zm-4.8-3.2h3.2v-3.2h-3.2zM1406.4 319.6h-6.4c-.88 0-1.6-.72-1.6-1.6v-6.4c0-.88.72-1.6 1.6-1.6h6.4c.88 0 1.6.72 1.6 1.6v6.4c0 .88-.72 1.6-1.6 1.6zm-4.8-3.2h3.2v-3.2h-3.2zM1393.6 327.6h-6.4c-.88 0-1.6-.72-1.6-1.6v-6.4c0-.88.72-1.6 1.6-1.6h6.4c.88 0 1.6.72 1.6 1.6v6.4c0 .88-.72 1.6-1.6 1.6zm-4.8-3.2h3.2v-3.2h-3.2z" stroke="#fff" stroke-opacity="0" stroke-width="2" fill="#fff"/><use xlink:href="#k" transform="matrix(1,0,0,1,1310,419) translate(42.561728395061735 17.77777777777778)"/><use xlink:href="#l" transform="matrix(1,0,0,1,1310,419) translate(98.05555555555556 17.77777777777778)"/><path d="M1640 290h120v120h-120V290z" stroke="#000" stroke-opacity="0" fill="url(#m)"/><path d="M1733.76 320.94v1l-3.24 24.26.16.17c5.68 3.05 8.45 5.53 8.84 7.76.24 1.07-.08 2.06-.7 2.8-.8 1-2.06 1.4-3.88 1.4-1.5 0-3.47-.32-5.84-.9l-3.16 24.52c-1.34 8.42-20.53 9.33-28.74 9.33-8.2 0-27.4-.9-28.74-9.33l-7.82-60.02v-1c0-5.77 15.63-12.2 36.56-12.2 20.92 0 36.56 6.43 36.56 12.2zm-7.82 31.62l3.24-25.43c-6.56 3.96-19.35 5.94-31.98 5.94-12.63 0-25.43-1.98-31.98-5.94l6.95 54.32c.47 2.98 9.24 6.12 25.03 6.12 15.8 0 24.56-3.14 25.03-6.2l3.24-25c-9.32-3-21.48-8.6-25.98-10.66-.64.42-1.43.75-2.3.75-2.13 0-3.87-1.82-3.87-3.96 0-2.16 1.74-3.98 3.87-3.98s3.8 1.74 3.95 3.8c4.34 1.98 15.87 7.27 24.8 10.24zm-28.74-23.2c19.58 0 32.3-4.8 32.85-8.26v-.16c-.7-2.15-11.6-8.5-32.85-8.5-21.32 0-32.14 6.44-32.85 8.5v.33c.8 3.38 13.42 8.1 32.85 8.1zm32.37 24.27c3.87 1.08 5.53 1 6.16.9-.4-.57-1.66-1.97-5.76-4.28z" stroke="#000" stroke-opacity="0" fill="#fff"/><use xlink:href="#n" transform="matrix(1,0,0,1,1610,419) translate(18.611111111111114 17.77777777777778)"/><use xlink:href="#o" transform="matrix(1,0,0,1,1610,419) translate(108.48765432098764 17.77777777777778)"/><path d="M1500 740h120v120h-120V740z" stroke="#fff" stroke-opacity="0" stroke-width="2" fill="#693cc5"/><path d="M1597.77 827.05l-7.28-7.36c4.4-6.57 6.4-13.37 6.4-21.3 0-21.2-17.13-38.4-38.34-38.4-15.12.08-28 8.16-34.56 21.85l2.88 1.36c8.4-17.52 29.44-24.88 46.97-16.48 12.48 6 19.92 17.76 19.92 31.7.08 7.03-1.68 13.03-5.52 18.95l-6.08-6.08c.4-.8.72-1.53 1.04-2.4 5.13-13.6-1.83-28.82-15.43-33.94-13.7-5.12-28.9 1.76-34 15.45h-10.57v3.2h9.68c-.4 1.7-.56 3.13-.56 4.8H1520v3.2h12.4c.16 1.7.4 3.13.88 4.8h-9.92v3.2h11.04c.4.9.8 1.6 1.28 2.5 7.04 12.7 23.13 17.2 35.85 10.15l5.84 5.85c-16.16 10.24-37.53 5.68-48.17-10.25l-2.64 1.76c11.76 17.62 35.45 22.42 53.13 10.82l7.35 7.36c2.96 2.96 7.76 2.96 10.72 0 2.96-2.96 2.96-7.76 0-10.73zm-39.13-4.72c-12.8 0-23.2-10.32-23.2-23.12s10.4-23.2 23.2-23.2c12.8 0 23.2 10.4 23.2 23.2 0 12.8-10.4 23.13-23.2 23.13zm36.8 13.2c-1.75 1.6-4.47 1.6-6.15 0l-15.05-15.12c2.48-1.83 4.32-3.75 6.08-6.4l15.12 15.22c1.76 1.76 1.76 4.48.08 6.16-.08 0-.08 0-.08.08z" stroke="#fff" stroke-opacity="0" stroke-width="2" fill="#fff"/><path d="M1573.4 801.5c-.7-1.48-1.66-2.6-3-3.57l1.05-7.8v-.4-.25c0-3.8-8.36-5.2-13.62-5.2s-13.6 1.4-13.6 5.2v.66l2.7 19.9c.2 4 9.76 4.1 10.87 4.1 2.2 0 4.03-.17 6.17-.62.7-.18 1.3-.36 2-.63 1.74-.7 2.65-1.6 2.7-2.85l.82-6.2c.55.1 1.05.17 1.6.17.85.12 1.64-.26 2.05-.98.32-.48.4-1 .26-1.52zm-6.48-1.8c-2.05-.8-4.53-1.9-6.9-3.02-.32-.93-1.14-1.55-2.13-1.55-1.3 0-2.32 1-2.32 2.3 0 1.25 1.02 2.26 2.28 2.3.26 0 .5-.07.76-.15 2.7 1.34 5.03 2.35 7.86 3.37l-.88 6.6c-.23.15-.46.27-.73.38-.55.18-1.02.33-1.6.45-1.88.42-3.5.57-5.44.57-2.78.15-5.18-.27-7.72-1.4l-2.24-16.66c6.84 1.84 13.1 1.84 19.94 0zm-9.06-8.66c-3.63.18-6.7-.33-10.1-1.62 3.34-1.52 6.44-2.12 10.1-1.97 3.62-.15 6.75.45 10.08 1.97-3.4 1.3-6.5 1.8-10.08 1.62z" stroke="#fff" stroke-opacity="0" stroke-width="2" fill="#fff"/><use xlink:href="#p" transform="matrix(1,0,0,1,1470,869) translate(6.265432098765444 17.77777777777778)"/><use xlink:href="#q" transform="matrix(1,0,0,1,1470,869) translate(98.67283950617285 17.77777777777778)"/><path d="M1054.25 720V600H1145v120zm5.5-5.4h79.75V605.4h-79.75zm49.5-24.6h-16.5v-12.96l-18.26-36.24c-.67-.84-1-1.68-1-2.64 0-7.56 21-8.16 27.5-8.16s27.5.6 27.5 8.16c0 .96-.33 1.8-1 2.64l-18.25 36.24zM1035 600h13.75v5.4h-8.25v109.2h8.25v5.4H1035zm47.63 44.64l15.62 31.08v8.88h5.5v-8.88l15.62-31.08c-6.5 1.56-14.74 1.68-18.37 1.68-3.63 0-11.88-.12-18.37-1.68zM1068 616.32v-5.4h66v5.4zm0 10.92v-5.4h66v5.4zm0 70.92v-5.4h66v5.4zm0 10.92v-5.4h66v5.4zm33-73.68c-10.9 0-18.04 1.56-20.9 2.76 2.86 1.2 10 2.76 20.9 2.76 10.9 0 18.04-1.56 20.9-2.76-2.86-1.2-10-2.76-20.9-2.76z" stroke="#000" stroke-opacity="0" fill="#4d27aa"/><path d="M1048.72 600h5.55l88.07 2.05.2 115.44-88.27 2.5h-5.66l-10.77-2.5V601.7z" stroke="#000" stroke-opacity="0" fill-opacity="0"/><use xlink:href="#r" transform="matrix(1,0,0,1,1005,729) translate(22.34259259259261 17.955555555555552)"/><use xlink:href="#s" transform="matrix(1,0,0,1,1005,729) translate(78.39135802469136 17.955555555555552)"/><path d="M1035 290h120v120h-120V290z" stroke="#000" stroke-opacity="0" fill="url(#t)"/><path d="M1128.76 320.94v1l-3.24 24.26.16.17c5.68 3.05 8.45 5.53 8.84 7.76.24 1.07-.08 2.06-.7 2.8-.8 1-2.06 1.4-3.88 1.4-1.5 0-3.47-.32-5.84-.9l-3.16 24.52c-1.34 8.42-20.53 9.33-28.74 9.33-8.2 0-27.4-.9-28.74-9.33l-7.82-60.02v-1c0-5.77 15.63-12.2 36.56-12.2 20.92 0 36.56 6.43 36.56 12.2zm-7.82 31.62l3.24-25.43c-6.56 3.96-19.35 5.94-31.98 5.94-12.63 0-25.43-1.98-31.98-5.94l6.95 54.32c.47 2.98 9.24 6.12 25.03 6.12 15.8 0 24.56-3.14 25.03-6.2l3.24-25c-9.32-3-21.48-8.6-25.98-10.66-.64.42-1.43.75-2.3.75-2.13 0-3.87-1.82-3.87-3.96 0-2.16 1.74-3.98 3.87-3.98s3.8 1.74 3.95 3.8c4.34 1.98 15.87 7.27 24.8 10.24zm-28.74-23.2c19.58 0 32.3-4.8 32.85-8.26v-.16c-.7-2.15-11.6-8.5-32.85-8.5-21.32 0-32.14 6.44-32.85 8.5v.33c.8 3.38 13.42 8.1 32.85 8.1zm32.37 24.27c3.87 1.08 5.53 1 6.16.9-.4-.57-1.66-1.97-5.76-4.28z" stroke="#000" stroke-opacity="0" fill="#fff"/><use xlink:href="#u" transform="matrix(1,0,0,1,1005,419) translate(20.651041666666657 22.802083333333336)"/><use xlink:href="#j" transform="matrix(1,0,0,1,1005,419) translate(107.16145833333334 22.802083333333336)"/><path d="M302.5 160.3h82.25a6 6 0 0 1 6 6v166.5a6 6 0 0 0 6 6h64.75" stroke="#5e5e5e" stroke-width="2" fill="none"/><path d="M302.53 161.3h-1.03v-2h1.03z" stroke="#5e5e5e" stroke-width=".05" fill="#5e5e5e"/><path d="M476.76 338.8l-14.26 4.63v-9.27z" stroke="#5e5e5e" stroke-width="2" fill="#5e5e5e"/><path d="M302.5 540.3h82.25a6 6 0 0 0 6-6V367.8a6 6 0 0 1 6-6h64.75" stroke="#5e5e5e" stroke-width="2" fill="none"/><path d="M302.53 541.3h-1.03v-2h1.03z" stroke="#5e5e5e" stroke-width=".05" fill="#5e5e5e"/><path d="M476.76 361.8l-14.26 4.63v-9.27z" stroke="#5e5e5e" stroke-width="2" fill="#5e5e5e"/><path d="M302.5 350.3h159" stroke="#5e5e5e" stroke-width="2" fill="none"/><path d="M302.53 351.3h-1.03v-2h1.03z" stroke="#5e5e5e" stroke-width=".05" fill="#5e5e5e"/><path d="M476.76 350.3l-14.26 4.63v-9.27z" stroke="#5e5e5e" stroke-width="2" fill="#5e5e5e"/><path d="M601 350h120.5" stroke="#5e5e5e" stroke-width="2" fill="none"/><path d="M601.03 351H600v-2h1.03z" stroke="#5e5e5e" stroke-width=".05" fill="#5e5e5e"/><path d="M736.76 350l-14.26 4.63v-9.26z" stroke="#5e5e5e" stroke-width="2" fill="#5e5e5e"/><path d="M861 350h155.5" stroke="#5e5e5e" stroke-width="2" fill="none"/><path d="M861.03 351H860v-2h1.03z" stroke="#5e5e5e" stroke-width=".05" fill="#5e5e5e"/><path d="M1031.76 350l-14.26 4.63v-9.26z" stroke="#5e5e5e" stroke-width="2" fill="#5e5e5e"/><path d="M1156 350h165.5" stroke="#5e5e5e" stroke-width="2" fill="none"/><path d="M1156.03 351H1155v-2h1.03z" stroke="#5e5e5e" stroke-width=".05" fill="#5e5e5e"/><path d="M1336.76 350l-14.26 4.63v-9.26z" stroke="#5e5e5e" stroke-width="2" fill="#5e5e5e"/><path d="M1461 350h160.5" stroke="#5e5e5e" stroke-width="2" fill="none"/><path d="M1461.03 351H1460v-2h1.03z" stroke="#5e5e5e" stroke-width=".05" fill="#5e5e5e"/><path d="M1636.76 350l-14.26 4.63v-9.26z" stroke="#5e5e5e" stroke-width="2" fill="#5e5e5e"/><path d="M1034 660H546a6 6 0 0 1-6-6V428.5" stroke="#5e5e5e" stroke-width="2" fill="none"/><path d="M1035 661h-1.03v-2h1.03z" stroke="#5e5e5e" stroke-width=".05" fill="#5e5e5e"/><path d="M540 413.24l4.63 14.26h-9.26z" stroke="#5e5e5e" stroke-width="2" fill="#5e5e5e"/><path d="M1090 599V428.5" stroke="#5e5e5e" stroke-width="2" fill="none"/><path d="M1091 600h-2v-1.03h2z" stroke="#5e5e5e" stroke-width=".05" fill="#5e5e5e"/><path d="M1090 413.24l4.63 14.26h-9.27z" stroke="#5e5e5e" stroke-width="2" fill="#5e5e5e"/><path d="M1146 660h548a6 6 0 0 0 6-6V428.5" stroke="#5e5e5e" stroke-width="2" fill="none"/><path d="M1146.03 661H1145v-2h1.03z" stroke="#5e5e5e" stroke-width=".05" fill="#5e5e5e"/><path d="M1700 413.24l4.63 14.26h-9.27z" stroke="#5e5e5e" stroke-width="2" fill="#5e5e5e"/><path d="M1499 743h-170.5a6 6 0 0 1-6-6v-36.57a6 6 0 0 0-6-6h-153" stroke="#5e5e5e" stroke-width="2" fill="none"/><path d="M1500 744h-1.03v-2h1.03z" stroke="#5e5e5e" stroke-width=".05" fill="#5e5e5e"/><path d="M1148.24 694.43l14.26-4.63v9.27z" stroke="#5e5e5e" stroke-width="2" fill="#5e5e5e"/><defs><path fill="#4c535d" d="M67-125c0 53 21 87 73 88 37 1 54-22 65-47l45 17C233-25 199 4 140 4 58 4 20-42 15-125 8-235 124-281 211-232c18 10 29 29 36 50l-46 12c-8-25-30-41-62-41-52 0-71 34-72 86" id="v"/><path fill="#4c535d" d="M85 4C-2 5 27-109 22-190h50c7 57-23 150 33 157 60-5 35-97 40-157h50l1 190h-47c-2-12 1-28-3-38-12 25-28 42-61 42" id="w"/><path fill="#4c535d" d="M137-138c1-29-70-34-71-4 15 46 118 7 119 86 1 83-164 76-172 9l43-7c4 19 20 25 44 25 33 8 57-30 24-41C81-84 22-81 20-136c-2-80 154-74 161-7" id="x"/><path fill="#4c535d" d="M115-3C79 11 28 4 28-45v-112H4v-33h27l15-45h31v45h36v33H77v99c-1 23 16 31 38 25v30" id="y"/><path fill="#4c535d" d="M110-194c64 0 96 36 96 99 0 64-35 99-97 99-61 0-95-36-95-99 0-62 34-99 96-99zm-1 164c35 0 45-28 45-65 0-40-10-65-43-65-34 0-45 26-45 65 0 36 10 65 43 65" id="z"/><path fill="#4c535d" d="M220-157c-53 9-28 100-34 157h-49v-107c1-27-5-49-29-50C55-147 81-57 75 0H25l-1-190h47c2 12-1 28 3 38 10-53 101-56 108 0 13-22 24-43 59-42 82 1 51 116 57 194h-49v-107c-1-25-5-48-29-50" id="A"/><path fill="#4c535d" d="M185-48c-13 30-37 53-82 52C43 2 14-33 14-96s30-98 90-98c62 0 83 45 84 108H66c0 31 8 55 39 56 18 0 30-7 34-22zm-45-69c5-46-57-63-70-21-2 6-4 13-4 21h74" id="B"/><path fill="#4c535d" d="M135-150c-39-12-60 13-60 57V0H25l-1-190h47c2 13-1 29 3 40 6-28 27-53 61-41v41" id="C"/><g id="a"><use transform="matrix(0.06172839506172839,0,0,0.06172839506172839,0,0)" xlink:href="#v"/><use transform="matrix(0.06172839506172839,0,0,0.06172839506172839,15.987654320987653,0)" xlink:href="#w"/><use transform="matrix(0.06172839506172839,0,0,0.06172839506172839,29.50617283950617,0)" xlink:href="#x"/><use transform="matrix(0.06172839506172839,0,0,0.06172839506172839,41.85185185185185,0)" xlink:href="#y"/><use transform="matrix(0.06172839506172839,0,0,0.06172839506172839,49.197530864197525,0)" xlink:href="#z"/><use transform="matrix(0.06172839506172839,0,0,0.06172839506172839,62.716049382716044,0)" xlink:href="#A"/><use transform="matrix(0.06172839506172839,0,0,0.06172839506172839,82.46913580246913,0)" xlink:href="#B"/><use transform="matrix(0.06172839506172839,0,0,0.06172839506172839,94.81481481481481,0)" xlink:href="#C"/></g><path fill="#4c535d" d="M240-174c0 40-23 61-54 70L253 0h-59l-57-94H76V0H24v-248c93 4 217-23 216 74zM76-134c48-2 112 12 112-38 0-48-66-32-112-35v73" id="D"/><path fill="#4c535d" d="M190-63c-7 42-38 67-86 67-59 0-84-38-90-98-12-110 154-137 174-36l-49 2c-2-19-15-32-35-32-30 0-35 28-38 64-6 74 65 87 74 30" id="E"/><path fill="#4c535d" d="M88-194c31-1 46 15 58 34l-1-101h50l1 261h-48c-2-10 0-23-3-31C134-8 116 4 84 4 32 4 16-41 15-95c0-56 19-97 73-99zm17 164c33 0 40-30 41-66 1-37-9-64-41-64s-38 30-39 65c0 43 13 65 39 65" id="F"/><g id="b"><use transform="matrix(0.06172839506172839,0,0,0.06172839506172839,0,0)" xlink:href="#D"/><use transform="matrix(0.06172839506172839,0,0,0.06172839506172839,15.987654320987653,0)" xlink:href="#B"/><use transform="matrix(0.06172839506172839,0,0,0.06172839506172839,28.333333333333332,0)" xlink:href="#E"/><use transform="matrix(0.06172839506172839,0,0,0.06172839506172839,40.67901234567901,0)" xlink:href="#z"/><use transform="matrix(0.06172839506172839,0,0,0.06172839506172839,54.19753086419753,0)" xlink:href="#C"/><use transform="matrix(0.06172839506172839,0,0,0.06172839506172839,62.839506172839506,0)" xlink:href="#F"/><use transform="matrix(0.06172839506172839,0,0,0.06172839506172839,76.35802469135803,0)" xlink:href="#x"/></g><path fill="#4c535d" d="M169-182c-1-43-94-46-97-3 18 66 151 10 154 114 3 95-165 93-204 36-6-8-10-19-12-30l50-8c3 46 112 56 116 5-17-69-150-10-154-114-4-87 153-88 188-35 5 8 8 18 10 28" id="G"/><path fill="#4c535d" d="M135-194c53 0 70 44 70 98 0 56-19 98-73 100-31 1-45-17-59-34 3 33 2 69 2 105H25l-1-265h48c2 10 0 23 3 31 11-24 29-35 60-35zM114-30c33 0 39-31 40-66 0-38-9-64-40-64-56 0-55 130 0 130" id="H"/><g id="c"><use transform="matrix(0.06172839506172839,0,0,0.06172839506172839,0,0)" xlink:href="#G"/><use transform="matrix(0.06172839506172839,0,0,0.06172839506172839,14.814814814814813,0)" xlink:href="#y"/><use transform="matrix(0.06172839506172839,0,0,0.06172839506172839,22.160493827160494,0)" xlink:href="#B"/><use transform="matrix(0.06172839506172839,0,0,0.06172839506172839,34.50617283950617,0)" xlink:href="#H"/></g><path fill="#4c535d" d="M136-208V0H84v-208H4v-40h212v40h-80" id="I"/><path fill="#4c535d" d="M133-34C117-15 103 5 69 4 32 3 11-16 11-54c-1-60 55-63 116-61 1-26-3-47-28-47-18 1-26 9-28 27l-52-2c7-38 36-58 82-57s74 22 75 68l1 82c-1 14 12 18 25 15v27c-30 8-71 5-69-32zm-48 3c29 0 43-24 42-57-32 0-66-3-65 30 0 17 8 27 23 27" id="J"/><path fill="#4c535d" d="M25-224v-37h50v37H25zM25 0v-190h50V0H25" id="K"/><path fill="#4c535d" d="M135-194c87-1 58 113 63 194h-50c-7-57 23-157-34-157-59 0-34 97-39 157H25l-1-190h47c2 12-1 28 3 38 12-26 28-41 61-42" id="L"/><g id="d"><use transform="matrix(0.06172839506172839,0,0,0.06172839506172839,0,0)" xlink:href="#I"/><use transform="matrix(0.06172839506172839,0,0,0.06172839506172839,12.28395061728395,0)" xlink:href="#C"/><use transform="matrix(0.06172839506172839,0,0,0.06172839506172839,20.925925925925924,0)" xlink:href="#J"/><use transform="matrix(0.06172839506172839,0,0,0.06172839506172839,33.2716049382716,0)" xlink:href="#K"/><use transform="matrix(0.06172839506172839,0,0,0.06172839506172839,39.44444444444444,0)" xlink:href="#L"/><use transform="matrix(0.06172839506172839,0,0,0.06172839506172839,52.96296296296296,0)" xlink:href="#B"/><use transform="matrix(0.06172839506172839,0,0,0.06172839506172839,65.30864197530865,0)" xlink:href="#C"/></g><g id="e"><use transform="matrix(0.06172839506172839,0,0,0.06172839506172839,0,0)" xlink:href="#D"/><use transform="matrix(0.06172839506172839,0,0,0.06172839506172839,15.987654320987653,0)" xlink:href="#B"/><use transform="matrix(0.06172839506172839,0,0,0.06172839506172839,28.333333333333332,0)" xlink:href="#E"/><use transform="matrix(0.06172839506172839,0,0,0.06172839506172839,40.67901234567901,0)" xlink:href="#z"/><use transform="matrix(0.06172839506172839,0,0,0.06172839506172839,54.19753086419753,0)" xlink:href="#C"/><use transform="matrix(0.06172839506172839,0,0,0.06172839506172839,62.839506172839506,0)" xlink:href="#F"/><use transform="matrix(0.06172839506172839,0,0,0.06172839506172839,76.35802469135803,0)" xlink:href="#x"/></g><path fill="#4c535d" d="M199 0l-22-63H83L61 0H9l90-248h61L250 0h-51zm-33-102l-36-108c-10 38-24 72-36 108h72" id="M"/><path fill="#4c535d" d="M25 0v-261h50V0H25" id="N"/><g id="f"><use transform="matrix(0.05925925925925927,0,0,0.05925925925925927,0,0)" xlink:href="#M"/><use transform="matrix(0.05925925925925927,0,0,0.05925925925925927,15.34814814814815,0)" xlink:href="#E"/><use transform="matrix(0.05925925925925927,0,0,0.05925925925925927,27.200000000000003,0)" xlink:href="#E"/><use transform="matrix(0.05925925925925927,0,0,0.05925925925925927,39.05185185185186,0)" xlink:href="#B"/><use transform="matrix(0.05925925925925927,0,0,0.05925925925925927,50.90370370370371,0)" xlink:href="#N"/><use transform="matrix(0.05925925925925927,0,0,0.05925925925925927,56.829629629629636,0)" xlink:href="#B"/><use transform="matrix(0.05925925925925927,0,0,0.05925925925925927,68.68148148148148,0)" xlink:href="#C"/><use transform="matrix(0.05925925925925927,0,0,0.05925925925925927,76.97777777777779,0)" xlink:href="#z"/><use transform="matrix(0.05925925925925927,0,0,0.05925925925925927,89.95555555555556,0)" xlink:href="#A"/><use transform="matrix(0.05925925925925927,0,0,0.05925925925925927,108.91851851851852,0)" xlink:href="#B"/><use transform="matrix(0.05925925925925927,0,0,0.05925925925925927,120.77037037037037,0)" xlink:href="#y"/><use transform="matrix(0.05925925925925927,0,0,0.05925925925925927,127.82222222222221,0)" xlink:href="#B"/><use transform="matrix(0.05925925925925927,0,0,0.05925925925925927,139.67407407407407,0)" xlink:href="#C"/></g><g id="g"><use transform="matrix(0.05925925925925927,0,0,0.05925925925925927,0,0)" xlink:href="#D"/><use transform="matrix(0.05925925925925927,0,0,0.05925925925925927,15.34814814814815,0)" xlink:href="#B"/><use transform="matrix(0.05925925925925927,0,0,0.05925925925925927,27.200000000000003,0)" xlink:href="#E"/><use transform="matrix(0.05925925925925927,0,0,0.05925925925925927,39.05185185185186,0)" xlink:href="#z"/><use transform="matrix(0.05925925925925927,0,0,0.05925925925925927,52.02962962962964,0)" xlink:href="#C"/><use transform="matrix(0.05925925925925927,0,0,0.05925925925925927,60.32592592592594,0)" xlink:href="#F"/><use transform="matrix(0.05925925925925927,0,0,0.05925925925925927,73.30370370370372,0)" xlink:href="#x"/></g><linearGradient gradientUnits="userSpaceOnUse" id="h" x1="480" y1="410" x2="600" y2="290"><stop offset="0%" stop-color="#1b660f"/><stop offset="100%" stop-color="#6cae3e"/></linearGradient><path d="M184 0v-1462h310v1206h593V0H184" id="O"/><path d="M618-1141c286 0 465 117 465 396V0H870l-59-152h-8C704-33 632 18 432 20 216 22 86-113 86-334c0-119 44-202 124-262 109-82 356-99 570-100 11-142-39-219-174-219-89 0-194 27-315 81l-101-206c129-67 271-101 428-101zm-71 938c137 0 235-88 233-223v-92c-190 3-382 4-381 186 0 86 49 129 148 129" id="P"/><path d="M795-1139c261-1 398 148 397 410V0H887v-653c-1-148-42-242-180-242-202 0-242 139-242 369V0H160v-1118h233l41 143h17c62-102 185-163 344-164" id="Q"/><path d="M92-557c0-327 132-582 430-582 141 0 248 55 322 164h10c-38-188-18-371-23-581h306V0H903l-59-145h-13C762-35 656 20 514 20 222 20 92-237 92-557zm309 4c0 190 54 330 220 330 191 0 231-123 231-332 0-214-44-336-236-336-161 0-215 151-215 338" id="R"/><path d="M479-1407c-1 99-61 150-166 150-111 0-166-50-166-150 0-99 55-149 166-149s166 50 166 149zM465 0H160v-1118h305V0" id="S"/><path d="M549-1139c43 0 163 15 194 21h390v155l-175 45c32 50 48 106 48 168 2 289-261 415-574 373-89 78-53 146 121 146h190c229-1 375 93 377 311 0 131-55 232-164 304S691 492 487 492c-156 0-275-28-357-82S6 280 6 182C6 26 113-51 254-84c-55-22-119-89-117-162 3-107 68-140 144-190C169-483 89-600 90-756c1-259 185-383 459-383zM467 14c-100-2-199 51-197 144 3 184 368 146 487 90 62-30 93-71 93-123 0-42-19-70-55-87-64-30-222-23-328-24zm82-569c118 0 165-80 166-197 0-135-55-202-166-202-112 0-168 67-168 202 0 117 52 197 168 197" id="T"/><g id="i"><use transform="matrix(0.010416666666666668,0,0,0.010416666666666668,0,0)" xlink:href="#O"/><use transform="matrix(0.010416666666666668,0,0,0.010416666666666668,12.052083333333334,0)" xlink:href="#P"/><use transform="matrix(0.010416666666666668,0,0,0.010416666666666668,24.937499999999996,0)" xlink:href="#Q"/><use transform="matrix(0.010416666666666668,0,0,0.010416666666666668,38.958333333333336,0)" xlink:href="#R"/><use transform="matrix(0.010416666666666668,0,0,0.010416666666666668,52.458333333333336,0)" xlink:href="#S"/><use transform="matrix(0.010416666666666668,0,0,0.010416666666666668,58.96875,0)" xlink:href="#Q"/><use transform="matrix(0.010416666666666668,0,0,0.010416666666666668,72.98958333333334,0)" xlink:href="#T"/></g><path d="M1137 0H49v-201l701-1005H68v-256h1050v200L418-256h719V0" id="U"/><path d="M633-893c-183 0-230 133-230 332s48 336 232 336c183 0 229-137 229-336s-47-332-231-332zm4-246c347 5 535 225 539 578S978 25 631 20C283 15 96-208 92-561c-4-355 196-583 545-578" id="V"/><path d="M836-686c0-141-77-236-213-236-140 0-206 98-215 236h428zm223 627C946-4 838 19 666 20 308 22 92-191 92-551c0-356 187-588 529-588 314 0 504 195 501 508v148H401c5 169 104 277 279 276 158-2 261-33 379-88v236" id="W"/><g id="j"><use transform="matrix(0.010416666666666668,0,0,0.010416666666666668,0,0)" xlink:href="#U"/><use transform="matrix(0.010416666666666668,0,0,0.010416666666666668,12.354166666666668,0)" xlink:href="#V"/><use transform="matrix(0.010416666666666668,0,0,0.010416666666666668,25.562499999999996,0)" xlink:href="#Q"/><use transform="matrix(0.010416666666666668,0,0,0.010416666666666668,39.583333333333336,0)" xlink:href="#W"/></g><path d="M67-125c0 54 23 88 75 88 28 0 53-7 68-21v-34h-60v-39h108v91C232-14 192 4 140 4 58 4 20-42 15-125 8-236 126-280 215-234c19 10 29 26 37 47l-47 15c-11-23-29-39-63-39-53 1-75 33-75 86" id="X"/><path d="M25 0v-261h50V0H25" id="Y"/><path d="M85 4C-2 5 27-109 22-190h50c7 57-23 150 33 157 60-5 35-97 40-157h50l1 190h-47c-2-12 1-28-3-38-12 25-28 42-61 42" id="Z"/><path d="M185-48c-13 30-37 53-82 52C43 2 14-33 14-96s30-98 90-98c62 0 83 45 84 108H66c0 31 8 55 39 56 18 0 30-7 34-22zm-45-69c5-46-57-63-70-21-2 6-4 13-4 21h74" id="aa"/><g id="k"><use transform="matrix(0.06172839506172839,0,0,0.06172839506172839,0,0)" xlink:href="#X"/><use transform="matrix(0.06172839506172839,0,0,0.06172839506172839,17.28395061728395,0)" xlink:href="#Y"/><use transform="matrix(0.06172839506172839,0,0,0.06172839506172839,23.456790123456788,0)" xlink:href="#Z"/><use transform="matrix(0.06172839506172839,0,0,0.06172839506172839,36.9753086419753,0)" xlink:href="#aa"/></g><path d="M176-78C186 10 51 31 16-35c-5-9-9-19-11-32l52-8c4 21 12 37 35 38 23 0 32-16 32-40v-130H75v-41h101v170" id="ab"/><path d="M110-194c64 0 96 36 96 99 0 64-35 99-97 99-61 0-95-36-95-99 0-62 34-99 96-99zm-1 164c35 0 45-28 45-65 0-40-10-65-43-65-34 0-45 26-45 65 0 36 10 65 43 65" id="ac"/><path d="M135-194c52 0 70 43 70 98 0 56-19 99-73 100-30 1-46-15-58-35L72 0H24l1-261h50v104c11-23 29-37 60-37zM114-30c31 0 40-27 40-66 0-37-7-63-39-63s-41 28-41 65c0 36 8 64 40 64" id="ad"/><g id="l"><use transform="matrix(0.06172839506172839,0,0,0.06172839506172839,0,0)" xlink:href="#ab"/><use transform="matrix(0.06172839506172839,0,0,0.06172839506172839,12.345679012345679,0)" xlink:href="#ac"/><use transform="matrix(0.06172839506172839,0,0,0.06172839506172839,25.864197530864196,0)" xlink:href="#ad"/></g><linearGradient gradientUnits="userSpaceOnUse" id="m" x1="1640" y1="410" x2="1760" y2="290"><stop offset="0%" stop-color="#1b660f"/><stop offset="100%" stop-color="#6cae3e"/></linearGradient><path d="M67-125c0 53 21 87 73 88 37 1 54-22 65-47l45 17C233-25 199 4 140 4 58 4 20-42 15-125 8-235 124-281 211-232c18 10 29 29 36 50l-46 12c-8-25-30-41-62-41-52 0-71 34-72 86" id="ae"/><path d="M135-150c-39-12-60 13-60 57V0H25l-1-190h47c2 13-1 29 3 40 6-28 27-53 61-41v41" id="af"/><path d="M133-34C117-15 103 5 69 4 32 3 11-16 11-54c-1-60 55-63 116-61 1-26-3-47-28-47-18 1-26 9-28 27l-52-2c7-38 36-58 82-57s74 22 75 68l1 82c-1 14 12 18 25 15v27c-30 8-71 5-69-32zm-48 3c29 0 43-24 42-57-32 0-66-3-65 30 0 17 8 27 23 27" id="ag"/><path d="M115-3C79 11 28 4 28-45v-112H4v-33h27l15-45h31v45h36v33H77v99c-1 23 16 31 38 25v30" id="ah"/><path d="M88-194c31-1 46 15 58 34l-1-101h50l1 261h-48c-2-10 0-23-3-31C134-8 116 4 84 4 32 4 16-41 15-95c0-56 19-97 73-99zm17 164c33 0 40-30 41-66 1-37-9-64-41-64s-38 30-39 65c0 43 13 65 39 65" id="ai"/><g id="n"><use transform="matrix(0.06172839506172839,0,0,0.06172839506172839,0,0)" xlink:href="#ae"/><use transform="matrix(0.06172839506172839,0,0,0.06172839506172839,15.987654320987653,0)" xlink:href="#Z"/><use transform="matrix(0.06172839506172839,0,0,0.06172839506172839,29.50617283950617,0)" xlink:href="#af"/><use transform="matrix(0.06172839506172839,0,0,0.06172839506172839,38.148148148148145,0)" xlink:href="#ag"/><use transform="matrix(0.06172839506172839,0,0,0.06172839506172839,50.49382716049382,0)" xlink:href="#ah"/><use transform="matrix(0.06172839506172839,0,0,0.06172839506172839,57.8395061728395,0)" xlink:href="#aa"/><use transform="matrix(0.06172839506172839,0,0,0.06172839506172839,70.18518518518518,0)" xlink:href="#ai"/></g><path d="M210 0H11v-37l134-170H24v-41h178v36L68-41h142V0" id="aj"/><path d="M135-194c87-1 58 113 63 194h-50c-7-57 23-157-34-157-59 0-34 97-39 157H25l-1-190h47c2 12-1 28 3 38 12-26 28-41 61-42" id="ak"/><g id="o"><use transform="matrix(0.06172839506172839,0,0,0.06172839506172839,0,0)" xlink:href="#aj"/><use transform="matrix(0.06172839506172839,0,0,0.06172839506172839,13.518518518518517,0)" xlink:href="#ac"/><use transform="matrix(0.06172839506172839,0,0,0.06172839506172839,27.037037037037035,0)" xlink:href="#ak"/><use transform="matrix(0.06172839506172839,0,0,0.06172839506172839,40.55555555555555,0)" xlink:href="#aa"/></g><path d="M199 0l-22-63H83L61 0H9l90-248h61L250 0h-51zm-33-102l-36-108c-10 38-24 72-36 108h72" id="al"/><path d="M220-157c-53 9-28 100-34 157h-49v-107c1-27-5-49-29-50C55-147 81-57 75 0H25l-1-190h47c2 12-1 28 3 38 10-53 101-56 108 0 13-22 24-43 59-42 82 1 51 116 57 194h-49v-107c-1-25-5-48-29-50" id="am"/><path d="M12 0v-35l95-120H19v-35h142v35L67-36h103V0H12" id="an"/><g id="p"><use transform="matrix(0.06172839506172839,0,0,0.06172839506172839,0,0)" xlink:href="#al"/><use transform="matrix(0.06172839506172839,0,0,0.06172839506172839,15.987654320987653,0)" xlink:href="#am"/><use transform="matrix(0.06172839506172839,0,0,0.06172839506172839,35.74074074074074,0)" xlink:href="#ag"/><use transform="matrix(0.06172839506172839,0,0,0.06172839506172839,48.08641975308642,0)" xlink:href="#an"/><use transform="matrix(0.06172839506172839,0,0,0.06172839506172839,59.19753086419753,0)" xlink:href="#ac"/><use transform="matrix(0.06172839506172839,0,0,0.06172839506172839,72.71604938271605,0)" xlink:href="#ak"/></g><path d="M114-157C55-157 80-60 75 0H25v-261h50l-1 109c12-26 28-41 61-42 86-1 58 113 63 194h-50c-7-57 23-157-34-157" id="ao"/><g id="q"><use transform="matrix(0.06172839506172839,0,0,0.06172839506172839,0,0)" xlink:href="#al"/><use transform="matrix(0.06172839506172839,0,0,0.06172839506172839,15.987654320987653,0)" xlink:href="#ah"/><use transform="matrix(0.06172839506172839,0,0,0.06172839506172839,23.333333333333332,0)" xlink:href="#ao"/><use transform="matrix(0.06172839506172839,0,0,0.06172839506172839,36.85185185185185,0)" xlink:href="#aa"/><use transform="matrix(0.06172839506172839,0,0,0.06172839506172839,49.197530864197525,0)" xlink:href="#ak"/><use transform="matrix(0.06172839506172839,0,0,0.06172839506172839,62.716049382716044,0)" xlink:href="#ag"/></g><g id="r"><use transform="matrix(0.06234567901234567,0,0,0.06234567901234567,0,0)" xlink:href="#X"/><use transform="matrix(0.06234567901234567,0,0,0.06234567901234567,17.456790123456788,0)" xlink:href="#Y"/><use transform="matrix(0.06234567901234567,0,0,0.06234567901234567,23.691358024691354,0)" xlink:href="#Z"/><use transform="matrix(0.06234567901234567,0,0,0.06234567901234567,37.34506172839505,0)" xlink:href="#aa"/></g><path d="M136-208V0H84v-208H4v-40h212v40h-80" id="ap"/><path d="M137-138c1-29-70-34-71-4 15 46 118 7 119 86 1 83-164 76-172 9l43-7c4 19 20 25 44 25 33 8 57-30 24-41C81-84 22-81 20-136c-2-80 154-74 161-7" id="aq"/><g id="s"><use transform="matrix(0.06234567901234567,0,0,0.06234567901234567,0,0)" xlink:href="#ap"/><use transform="matrix(0.06234567901234567,0,0,0.06234567901234567,11.970370370370368,0)" xlink:href="#ag"/><use transform="matrix(0.06234567901234567,0,0,0.06234567901234567,24.4395061728395,0)" xlink:href="#ad"/><use transform="matrix(0.06234567901234567,0,0,0.06234567901234567,38.0932098765432,0)" xlink:href="#Y"/><use transform="matrix(0.06234567901234567,0,0,0.06234567901234567,44.32777777777777,0)" xlink:href="#aa"/><use transform="matrix(0.06234567901234567,0,0,0.06234567901234567,56.7969135802469,0)" xlink:href="#aq"/></g><linearGradient gradientUnits="userSpaceOnUse" id="t" x1="1035" y1="410" x2="1155" y2="290"><stop offset="0%" stop-color="#1b660f"/><stop offset="100%" stop-color="#6cae3e"/></linearGradient><path d="M748 0H438v-1204H41v-258h1104v258H748V0" id="ar"/><path d="M451-930c71-134 228-244 436-200l-23 286c-220-45-399 61-399 275V0H160v-1118h231l45 188h15" id="as"/><path d="M639-223c202 0 242-139 242-369v-526h305V0H952l-41-143h-16C834-43 709 20 551 20c-263 0-397-147-397-409v-729h305v653c1 148 42 242 180 242" id="at"/><path d="M836-831c-99-39-182-77-306-82-139-6-173 83-92 144 51 39 327 139 383 188 71 62 119 126 119 249C940-74 747 21 463 20 305 20 202 0 94-45v-252c93 45 253 94 379 94 111 0 166-32 166-96 0-68-41-76-98-109-79-46-276-119-333-167-74-61-116-125-116-252 0-368 555-367 836-224" id="au"/><path d="M498-350c-2 85 52 126 133 127 53 0 117-12 192-35v227C747 3 654 20 543 20c-247 0-350-124-350-370v-539H47v-129l168-102 88-236h195v238h313v229H498v539" id="av"/><g id="u"><use transform="matrix(0.010416666666666668,0,0,0.010416666666666668,0,0)" xlink:href="#ar"/><use transform="matrix(0.010416666666666668,0,0,0.010416666666666668,11.291666666666668,0)" xlink:href="#as"/><use transform="matrix(0.010416666666666668,0,0,0.010416666666666668,20.97916666666667,0)" xlink:href="#at"/><use transform="matrix(0.010416666666666668,0,0,0.010416666666666668,35.00000000000001,0)" xlink:href="#au"/><use transform="matrix(0.010416666666666668,0,0,0.010416666666666668,45.60416666666667,0)" xlink:href="#av"/><use transform="matrix(0.010416666666666668,0,0,0.010416666666666668,54.86458333333334,0)" xlink:href="#W"/><use transform="matrix(0.010416666666666668,0,0,0.010416666666666668,67.46875000000001,0)" xlink:href="#R"/></g></defs></g></svg>