<svg xmlns="http://www.w3.org/2000/svg" xmlns:xlink="http://www.w3.org/1999/xlink" xmlns:lucid="lucid" width="2320" height="960"><g transform="translate(0 0)" lucid:page-tab-id="0_0"><path d="M40 51.33a8 8 0 0 1 8-8h177.3a8 8 0 0 1 8 8v131.72c-32.27-23.33-52.37-23.33-64.55-23.33-19.33 0-45.05 23.33-64.38 23.33-11.98 0-32.28 0-64.37-23.33z" stroke="#333" fill="#c3f7c8"/><path d="M50.74 63.66a8 8 0 0 1 8-8h177.3a8 8 0 0 1 8.02 8v131.72c-32.3-23.33-52.4-23.33-64.57-23.33-19.34 0-45.06 23.33-64.4 23.33-11.97 0-32.27 0-64.36-23.33z" stroke="#333" fill="#c3f7c8"/><path d="M61.48 76a8 8 0 0 1 8-8h177.3a8 8 0 0 1 8 8v131.7c-32.27-23.32-52.37-23.32-64.55-23.32-19.33 0-45.04 23.33-64.38 23.33-11.98 0-32.28 0-64.37-23.32z" stroke="#333" fill="#c3f7c8"/><use xlink:href="#a" transform="matrix(1,0,0,1,66.47945205479454,72.98958333333344) translate(38.074999999999996 57.86875)"/><path d="M40 407.48a8 8 0 0 1 8-8h177.3a8 8 0 0 1 8 8V539.2c-32.27-23.34-52.37-23.34-64.55-23.34-19.33 0-45.05 23.34-64.38 23.34-11.98 0-32.28 0-64.37-23.34z" stroke="#333" fill="#c3f7c8"/><path d="M50.74 419.8a8 8 0 0 1 8-8h177.3a8 8 0 0 1 8.02 8v131.73c-32.3-23.34-52.4-23.34-64.57-23.34-19.34 0-45.06 23.33-64.4 23.33-11.97 0-32.27 0-64.36-23.34z" stroke="#333" fill="#c3f7c8"/><path d="M61.48 432.13a8 8 0 0 1 8-8h177.3a8 8 0 0 1 8 8v131.72c-32.27-23.33-52.37-23.33-64.55-23.33-19.33 0-45.04 23.33-64.38 23.33-11.98 0-32.28 0-64.37-23.33z" stroke="#333" fill="#c3f7c8"/><use xlink:href="#b" transform="matrix(1,0,0,1,66.47945205479454,429.13541666666674) translate(22.549999999999997 57.86875)"/><path d="M40 763.63a8 8 0 0 1 8-8h177.3a8 8 0 0 1 8 8v131.7c-32.27-23.32-52.37-23.32-64.55-23.32-19.33 0-45.05 23.34-64.38 23.34-11.98 0-32.28 0-64.37-23.33z" stroke="#333" fill="#c3f7c8"/><path d="M50.74 775.95a8 8 0 0 1 8-8h177.3a8 8 0 0 1 8.02 8v131.72c-32.3-23.33-52.4-23.33-64.57-23.33-19.34 0-45.06 23.33-64.4 23.33-11.97 0-32.27 0-64.36-23.33z" stroke="#333" fill="#c3f7c8"/><path d="M61.48 788.28a8 8 0 0 1 8-8h177.3a8 8 0 0 1 8 8V920c-32.27-23.33-52.37-23.33-64.55-23.33-19.33 0-45.04 23.33-64.38 23.33-11.98 0-32.28 0-64.37-23.33z" stroke="#333" fill="#c3f7c8"/><use xlink:href="#c" transform="matrix(1,0,0,1,66.47945205479454,785.28125) translate(32.1 57.86875)"/><path d="M389.04 51.33a8 8 0 0 1 8-8h198.8a8 8 0 0 1 8 8V199.7a8 8 0 0 1-8 8h-198.8a8 8 0 0 1-8-8z" stroke="#333" fill="#ffdda6"/><use xlink:href="#d" transform="matrix(1,0,0,1,401.04109589041104,55.33333333333344) translate(6.199999999999989 62.86875)"/><use xlink:href="#e" transform="matrix(1,0,0,1,401.04109589041104,55.33333333333344) translate(73.05 62.86875)"/><use xlink:href="#f" transform="matrix(1,0,0,1,401.04109589041104,55.33333333333344) translate(94.95 62.86875)"/><use xlink:href="#g" transform="matrix(1,0,0,1,401.04109589041104,55.33333333333344) translate(147.9 62.86875)"/><use xlink:href="#h" transform="matrix(1,0,0,1,401.04109589041104,55.33333333333344) translate(0.674999999999983 84.46875)"/><use xlink:href="#i" transform="matrix(1,0,0,1,401.04109589041104,55.33333333333344) translate(29.574999999999985 84.46875)"/><use xlink:href="#j" transform="matrix(1,0,0,1,401.04109589041104,55.33333333333344) translate(109.52499999999999 84.46875)"/><path d="M899.18 191.27c0 9.08-36.06 16.44-80.55 16.44-44.5 0-80.55-7.35-80.55-16.43V59.77c0-9.08 36.06-16.44 80.55-16.44 44.5 0 80.55 7.36 80.55 16.44z" stroke="#333" fill="#dedeff"/><path d="M899.18 59.77c0 9.08-36.06 16.44-80.55 16.44-44.5 0-80.55-7.35-80.55-16.43" stroke="#333" fill="none"/><use xlink:href="#k" transform="matrix(1,0,0,1,743.0821917808221,81.20833333333346) translate(-4.824999999999989 64.60000000000001)"/><path d="M1275.07 547.42c0 9.08-36.06 16.43-80.55 16.43-44.48 0-80.55-7.36-80.55-16.43v-131.5c0-9.08 36.07-16.44 80.55-16.44 44.5 0 80.55 7.36 80.55 16.44z" stroke="#333" fill="#dedeff"/><path d="M1275.07 415.92c0 9.07-36.06 16.43-80.55 16.43-44.48 0-80.55-7.36-80.55-16.43" stroke="#333" fill="none"/><use xlink:href="#l" transform="matrix(1,0,0,1,1118.9726027397262,437.35416666666674) translate(-20.34999999999998 64.60000000000001)"/><path d="M1091.5 50.03a4.33 4.33 0 0 1 3.62-6.7h198.8a4.33 4.33 0 0 1 3.62 6.7L1198.9 201a5.23 5.23 0 0 1-8.76 0z" stroke="#333" fill="#fff7a1"/><use xlink:href="#m" transform="matrix(1,0,0,1,1092.1232876712331,48.33333333333344) translate(81.03 82.2125)"/><path d="M1650.96 191.27c0 9.08-36.06 16.44-80.55 16.44-44.47 0-80.54-7.35-80.54-16.43V59.77c0-9.08 36.07-16.44 80.55-16.44 44.5 0 80.56 7.36 80.56 16.44z" stroke="#333" fill="#dedeff"/><path d="M1650.96 59.77c0 9.08-36.06 16.44-80.55 16.44-44.47 0-80.54-7.35-80.54-16.43" stroke="#333" fill="none"/><use xlink:href="#n" transform="matrix(1,0,0,1,1494.8630136986305,81.20833333333346) translate(-6.849999999999994 64.60000000000001)"/><path d="M1091.5 762.32a4.33 4.33 0 0 1 3.62-6.7h198.8a4.33 4.33 0 0 1 3.62 6.7L1198.9 913.3a5.23 5.23 0 0 1-8.76 0z" stroke="#333" fill="#fff7a1"/><use xlink:href="#m" transform="matrix(1,0,0,1,1092.1232876712331,760.625) translate(81.03 82.2125)"/><path d="M1650.96 903.56c0 9.08-36.06 16.44-80.55 16.44-44.47 0-80.54-7.36-80.54-16.44v-131.5c0-9.08 36.07-16.43 80.55-16.43 44.5 0 80.56 7.35 80.56 16.43z" stroke="#333" fill="#dedeff"/><path d="M1650.96 772.06c0 9.08-36.06 16.44-80.55 16.44-44.47 0-80.54-7.36-80.54-16.44" stroke="#333" fill="none"/><use xlink:href="#o" transform="matrix(1,0,0,1,1494.8630136986305,793.5) translate(-10.799999999999983 64.60000000000001)"/><path d="M715.6 406.18a4.33 4.33 0 0 1 3.63-6.7h198.8a4.33 4.33 0 0 1 3.62 6.7L823 557.16a5.23 5.23 0 0 1-8.75 0z" stroke="#333" fill="#fff7a1"/><use xlink:href="#m" transform="matrix(1,0,0,1,716.2328767123289,404.4791666666667) translate(81.03 82.2125)"/><path d="M255.8 481.8h492.24" stroke="#333" fill="none"/><path d="M255.8 482.3h-.5v-1h.5z" stroke="#333" stroke-width=".05" fill="#333"/><path d="M762.8 481.8l-14.26 4.64v-9.27z" stroke="#333" fill="#333"/><path d="M818.63 208.7v173.9" stroke="#333" fill="none"/><path d="M818.63 208.2h.5v.52h-1v-.53z" stroke="#333" stroke-width=".05" fill="#333"/><path d="M818.63 397.36L814 383.1h9.26z" stroke="#333" fill="#333"/><path d="M874.82 479.53H1097.1" stroke="#333" fill="none"/><path d="M874.83 480.03H874l.65-1h.18z" stroke="#333" stroke-width=".05" fill="#333"/><path d="M1111.86 479.53l-14.27 4.63v-9.27z" stroke="#333" fill="#333"/><path d="M255.8 125.66H372.15" stroke="#333" fill="none"/><path d="M255.8 126.16h-.5v-1h.5z" stroke="#333" stroke-width=".05" fill="#333"/><path d="M386.92 125.66l-14.26 4.63V121z" stroke="#333" fill="#333"/><path d="M604.84 125.52H721.2" stroke="#333" fill="none"/><path d="M604.85 126.02h-.5v-1h.5z" stroke="#333" stroke-width=".05" fill="#333"/><path d="M735.96 125.52l-14.26 4.64v-9.27z" stroke="#333" fill="#333"/><path d="M900.18 125.52h223.66" stroke="#333" fill="none"/><path d="M900.2 126.02h-.52v-1h.5z" stroke="#333" stroke-width=".05" fill="#333"/><path d="M1138.6 125.52l-14.26 4.64v-9.27z" stroke="#333" fill="#333"/><path d="M1250.7 123.4h119.1v-.02h103.18" stroke="#333" fill="none"/><path d="M1250.72 123.9h-.84l.66-1h.18z" stroke="#333" stroke-width=".05" fill="#333"/><path d="M1487.74 123.38l-14.26 4.64v-9.27z" stroke="#333" fill="#333"/><path d="M1194.52 398.48V218.92" stroke="#333" fill="none"/><path d="M1195.02 399l-.5-.02h-.5v-.5h1z" stroke="#333" stroke-width=".05" fill="#333"/><path d="M1194.52 204.15l4.64 14.27h-9.28z" stroke="#333" fill="#333"/><path d="M1194.52 564.85v173.9" stroke="#333" fill="none"/><path d="M1194.52 564.35h.5v.52h-1v-.53z" stroke="#333" stroke-width=".05" fill="#333"/><path d="M1194.52 753.5l-4.63-14.26h9.26z" stroke="#333" fill="#333"/><path d="M1250.7 835.68H1473" stroke="#333" fill="none"/><path d="M1250.72 836.18h-.84l.66-1h.18z" stroke="#333" stroke-width=".05" fill="#333"/><path d="M1487.74 835.67l-14.26 4.64v-9.26z" stroke="#333" fill="#333"/><path d="M2000 547.42c0 9.08-36.06 16.43-80.55 16.43-44.48 0-80.55-7.36-80.55-16.43v-131.5c0-9.08 36.07-16.44 80.55-16.44 44.5 0 80.55 7.36 80.55 16.44z" stroke="#333" fill="#dedeff"/><path d="M2000 415.92c0 9.07-36.06 16.43-80.55 16.43-44.48 0-80.55-7.36-80.55-16.43" stroke="#333" fill="none"/><use xlink:href="#p" transform="matrix(1,0,0,1,1843.9041095890411,437.35416666666674) translate(25.624999999999993 63.9625)"/><path d="M1467.4 406.18a4.33 4.33 0 0 1 3.6-6.7h198.8a4.33 4.33 0 0 1 3.63 6.7l-98.64 150.98a5.23 5.23 0 0 1-8.76 0z" stroke="#333" fill="#fff7a1"/><use xlink:href="#m" transform="matrix(1,0,0,1,1468.0136986301375,404.4791666666667) translate(81.03 82.2125)"/><path d="M1570.4 754.63V575.06" stroke="#333" fill="none"/><path d="M1570.9 755.14h-.98v-.53h1z" stroke="#333" stroke-width=".05" fill="#333"/><path d="M1570.4 560.3l4.65 14.26h-9.27z" stroke="#333" fill="#333"/><path d="M1276.07 481.67h223.66" stroke="#333" fill="none"/><path d="M1276.08 482.17h-.5v-1h.5z" stroke="#333" stroke-width=".05" fill="#333"/><path d="M1514.5 481.67l-14.27 4.63v-9.27z" stroke="#333" fill="#333"/><path d="M1570.4 208.7v173.9" stroke="#333" fill="none"/><path d="M1570.4 208.2h.5v.52h-1v-.53z" stroke="#333" stroke-width=".05" fill="#333"/><path d="M1570.4 397.36l-4.62-14.26h9.27z" stroke="#333" fill="#333"/><path d="M1626.6 479.53H1822.02" stroke="#333" fill="none"/><path d="M1626.62 480.03h-.84l.65-1h.18z" stroke="#333" stroke-width=".05" fill="#333"/><path d="M1836.8 479.53l-14.28 4.63v-9.27z" stroke="#333" fill="#333"/><path d="M255.8 837.95h868.13" stroke="#333" fill="none"/><path d="M255.8 838.45h-.5v-1h.5z" stroke="#333" stroke-width=".05" fill="#333"/><path d="M1138.7 837.95l-14.27 4.63v-9.27z" stroke="#333" fill="#333"/><defs><path fill="#333" d="M190-63c-7 42-38 67-86 67-59 0-84-38-90-98-12-110 154-137 174-36l-49 2c-2-19-15-32-35-32-30 0-35 28-38 64-6 74 65 87 74 30" id="q"/><path fill="#333" d="M85 4C-2 5 27-109 22-190h50c7 57-23 150 33 157 60-5 35-97 40-157h50l1 190h-47c-2-12 1-28-3-38-12 25-28 42-61 42" id="r"/><path fill="#333" d="M137-138c1-29-70-34-71-4 15 46 118 7 119 86 1 83-164 76-172 9l43-7c4 19 20 25 44 25 33 8 57-30 24-41C81-84 22-81 20-136c-2-80 154-74 161-7" id="s"/><path fill="#333" d="M115-3C79 11 28 4 28-45v-112H4v-33h27l15-45h31v45h36v33H77v99c-1 23 16 31 38 25v30" id="t"/><path fill="#333" d="M110-194c64 0 96 36 96 99 0 64-35 99-97 99-61 0-95-36-95-99 0-62 34-99 96-99zm-1 164c35 0 45-28 45-65 0-40-10-65-43-65-34 0-45 26-45 65 0 36 10 65 43 65" id="u"/><path fill="#333" d="M220-157c-53 9-28 100-34 157h-49v-107c1-27-5-49-29-50C55-147 81-57 75 0H25l-1-190h47c2 12-1 28 3 38 10-53 101-56 108 0 13-22 24-43 59-42 82 1 51 116 57 194h-49v-107c-1-25-5-48-29-50" id="v"/><path fill="#333" d="M185-48c-13 30-37 53-82 52C43 2 14-33 14-96s30-98 90-98c62 0 83 45 84 108H66c0 31 8 55 39 56 18 0 30-7 34-22zm-45-69c5-46-57-63-70-21-2 6-4 13-4 21h74" id="w"/><path fill="#333" d="M135-150c-39-12-60 13-60 57V0H25l-1-190h47c2 13-1 29 3 40 6-28 27-53 61-41v41" id="x"/><g id="a"><use transform="matrix(0.05,0,0,0.05,0,0)" xlink:href="#q"/><use transform="matrix(0.05,0,0,0.05,10,0)" xlink:href="#r"/><use transform="matrix(0.05,0,0,0.05,20.950000000000003,0)" xlink:href="#s"/><use transform="matrix(0.05,0,0,0.05,30.950000000000003,0)" xlink:href="#t"/><use transform="matrix(0.05,0,0,0.05,36.900000000000006,0)" xlink:href="#u"/><use transform="matrix(0.05,0,0,0.05,47.85000000000001,0)" xlink:href="#v"/><use transform="matrix(0.05,0,0,0.05,63.85,0)" xlink:href="#w"/><use transform="matrix(0.05,0,0,0.05,73.85000000000001,0)" xlink:href="#x"/><use transform="matrix(0.05,0,0,0.05,80.85000000000001,0)" xlink:href="#s"/></g><path fill="#333" d="M133-34C117-15 103 5 69 4 32 3 11-16 11-54c-1-60 55-63 116-61 1-26-3-47-28-47-18 1-26 9-28 27l-52-2c7-38 36-58 82-57s74 22 75 68l1 82c-1 14 12 18 25 15v27c-30 8-71 5-69-32zm-48 3c29 0 43-24 42-57-32 0-66-3-65 30 0 17 8 27 23 27" id="y"/><path fill="#333" d="M25 0v-261h50V0H25" id="z"/><g id="b"><use transform="matrix(0.05,0,0,0.05,0,0)" xlink:href="#y"/><use transform="matrix(0.05,0,0,0.05,10,0)" xlink:href="#q"/><use transform="matrix(0.05,0,0,0.05,20,0)" xlink:href="#q"/><use transform="matrix(0.05,0,0,0.05,30,0)" xlink:href="#w"/><use transform="matrix(0.05,0,0,0.05,40,0)" xlink:href="#z"/><use transform="matrix(0.05,0,0,0.05,45,0)" xlink:href="#w"/><use transform="matrix(0.05,0,0,0.05,55,0)" xlink:href="#x"/><use transform="matrix(0.05,0,0,0.05,62,0)" xlink:href="#u"/><use transform="matrix(0.05,0,0,0.05,72.95,0)" xlink:href="#v"/><use transform="matrix(0.05,0,0,0.05,88.95,0)" xlink:href="#w"/><use transform="matrix(0.05,0,0,0.05,98.95,0)" xlink:href="#t"/><use transform="matrix(0.05,0,0,0.05,104.9,0)" xlink:href="#w"/><use transform="matrix(0.05,0,0,0.05,114.9,0)" xlink:href="#x"/></g><path fill="#333" d="M135-194c53 0 70 44 70 98 0 56-19 98-73 100-31 1-45-17-59-34 3 33 2 69 2 105H25l-1-265h48c2 10 0 23 3 31 11-24 29-35 60-35zM114-30c33 0 39-31 40-66 0-38-9-64-40-64-56 0-55 130 0 130" id="A"/><path fill="#333" d="M-4 44V30h207v14H-4" id="B"/><path fill="#333" d="M25-224v-37h50v37H25zM25 0v-190h50V0H25" id="C"/><path fill="#333" d="M135-194c87-1 58 113 63 194h-50c-7-57 23-157-34-157-59 0-34 97-39 157H25l-1-190h47c2 12-1 28 3 38 12-26 28-41 61-42" id="D"/><g id="c"><use transform="matrix(0.05,0,0,0.05,0,0)" xlink:href="#s"/><use transform="matrix(0.05,0,0,0.05,10,0)" xlink:href="#t"/><use transform="matrix(0.05,0,0,0.05,15.949999999999998,0)" xlink:href="#w"/><use transform="matrix(0.05,0,0,0.05,25.950000000000003,0)" xlink:href="#A"/><use transform="matrix(0.05,0,0,0.05,36.9,0)" xlink:href="#B"/><use transform="matrix(0.05,0,0,0.05,46.9,0)" xlink:href="#t"/><use transform="matrix(0.05,0,0,0.05,52.85,0)" xlink:href="#x"/><use transform="matrix(0.05,0,0,0.05,59.85,0)" xlink:href="#y"/><use transform="matrix(0.05,0,0,0.05,69.85,0)" xlink:href="#C"/><use transform="matrix(0.05,0,0,0.05,74.85,0)" xlink:href="#D"/><use transform="matrix(0.05,0,0,0.05,85.8,0)" xlink:href="#w"/><use transform="matrix(0.05,0,0,0.05,95.8,0)" xlink:href="#x"/></g><path fill="#333" d="M199 0l-22-63H83L61 0H9l90-248h61L250 0h-51zm-33-102l-36-108c-10 38-24 72-36 108h72" id="E"/><path fill="#333" d="M195-6C206 82 75 100 31 46c-4-6-6-13-8-21l49-6c3 16 16 24 34 25 40 0 42-37 40-79-11 22-30 35-61 35-53 0-70-43-70-97 0-56 18-96 73-97 30 0 46 14 59 34l2-30h47zm-90-29c32 0 41-27 41-63 0-35-9-62-40-62-32 0-39 29-40 63 0 36 9 62 39 62" id="F"/><path fill="#333" d="M88-194c31-1 46 15 58 34l-1-101h50l1 261h-48c-2-10 0-23-3-31C134-8 116 4 84 4 32 4 16-41 15-95c0-56 19-97 73-99zm17 164c33 0 40-30 41-66 1-37-9-64-41-64s-38 30-39 65c0 43 13 65 39 65" id="G"/><g id="d"><use transform="matrix(0.05,0,0,0.05,0,0)" xlink:href="#E"/><use transform="matrix(0.05,0,0,0.05,12.950000000000001,0)" xlink:href="#F"/><use transform="matrix(0.05,0,0,0.05,23.900000000000002,0)" xlink:href="#x"/><use transform="matrix(0.05,0,0,0.05,30.900000000000002,0)" xlink:href="#w"/><use transform="matrix(0.05,0,0,0.05,40.900000000000006,0)" xlink:href="#w"/><use transform="matrix(0.05,0,0,0.05,50.900000000000006,0)" xlink:href="#G"/></g><g id="e"><use transform="matrix(0.05,0,0,0.05,0,0)" xlink:href="#t"/><use transform="matrix(0.05,0,0,0.05,5.95,0)" xlink:href="#u"/></g><path fill="#333" d="M114-157C55-157 80-60 75 0H25v-261h50l-1 109c12-26 28-41 61-42 86-1 58 113 63 194h-50c-7-57 23-157-34-157" id="H"/><g id="f"><use transform="matrix(0.05,0,0,0.05,0,0)" xlink:href="#s"/><use transform="matrix(0.05,0,0,0.05,10,0)" xlink:href="#H"/><use transform="matrix(0.05,0,0,0.05,20.950000000000003,0)" xlink:href="#y"/><use transform="matrix(0.05,0,0,0.05,30.950000000000003,0)" xlink:href="#x"/><use transform="matrix(0.05,0,0,0.05,37.95,0)" xlink:href="#w"/></g><g id="g"><use transform="matrix(0.05,0,0,0.05,0,0)" xlink:href="#G"/><use transform="matrix(0.05,0,0,0.05,10.950000000000001,0)" xlink:href="#y"/><use transform="matrix(0.05,0,0,0.05,20.950000000000003,0)" xlink:href="#t"/><use transform="matrix(0.05,0,0,0.05,26.900000000000002,0)" xlink:href="#y"/></g><path fill="#333" d="M121-226c-27-7-43 5-38 36h38v33H83V0H34v-157H6v-33h28c-9-59 32-81 87-68v32" id="I"/><g id="h"><use transform="matrix(0.05,0,0,0.05,0,0)" xlink:href="#I"/><use transform="matrix(0.05,0,0,0.05,5.95,0)" xlink:href="#u"/><use transform="matrix(0.05,0,0,0.05,16.900000000000002,0)" xlink:href="#x"/></g><g id="i"><use transform="matrix(0.05,0,0,0.05,0,0)" xlink:href="#x"/><use transform="matrix(0.05,0,0,0.05,7,0)" xlink:href="#w"/><use transform="matrix(0.05,0,0,0.05,17,0)" xlink:href="#s"/><use transform="matrix(0.05,0,0,0.05,27,0)" xlink:href="#w"/><use transform="matrix(0.05,0,0,0.05,37,0)" xlink:href="#y"/><use transform="matrix(0.05,0,0,0.05,47,0)" xlink:href="#x"/><use transform="matrix(0.05,0,0,0.05,54,0)" xlink:href="#q"/><use transform="matrix(0.05,0,0,0.05,64,0)" xlink:href="#H"/></g><g id="j"><use transform="matrix(0.05,0,0,0.05,0,0)" xlink:href="#A"/><use transform="matrix(0.05,0,0,0.05,10.950000000000001,0)" xlink:href="#r"/><use transform="matrix(0.05,0,0,0.05,21.900000000000002,0)" xlink:href="#x"/><use transform="matrix(0.05,0,0,0.05,28.900000000000002,0)" xlink:href="#A"/><use transform="matrix(0.05,0,0,0.05,39.85,0)" xlink:href="#u"/><use transform="matrix(0.05,0,0,0.05,50.800000000000004,0)" xlink:href="#s"/><use transform="matrix(0.05,0,0,0.05,60.800000000000004,0)" xlink:href="#w"/><use transform="matrix(0.05,0,0,0.05,70.80000000000001,0)" xlink:href="#s"/></g><g id="k"><use transform="matrix(0.05,0,0,0.05,0,0)" xlink:href="#q"/><use transform="matrix(0.05,0,0,0.05,10,0)" xlink:href="#r"/><use transform="matrix(0.05,0,0,0.05,20.950000000000003,0)" xlink:href="#s"/><use transform="matrix(0.05,0,0,0.05,30.950000000000003,0)" xlink:href="#t"/><use transform="matrix(0.05,0,0,0.05,36.900000000000006,0)" xlink:href="#u"/><use transform="matrix(0.05,0,0,0.05,47.85000000000001,0)" xlink:href="#v"/><use transform="matrix(0.05,0,0,0.05,63.85,0)" xlink:href="#w"/><use transform="matrix(0.05,0,0,0.05,73.85000000000001,0)" xlink:href="#x"/><use transform="matrix(0.05,0,0,0.05,80.85000000000001,0)" xlink:href="#s"/><use transform="matrix(0.05,0,0,0.05,90.85000000000001,0)" xlink:href="#B"/><use transform="matrix(0.05,0,0,0.05,100.85000000000001,0)" xlink:href="#t"/><use transform="matrix(0.05,0,0,0.05,106.80000000000001,0)" xlink:href="#x"/><use transform="matrix(0.05,0,0,0.05,113.80000000000001,0)" xlink:href="#r"/><use transform="matrix(0.05,0,0,0.05,124.75,0)" xlink:href="#s"/><use transform="matrix(0.05,0,0,0.05,134.75,0)" xlink:href="#t"/><use transform="matrix(0.05,0,0,0.05,140.7,0)" xlink:href="#w"/><use transform="matrix(0.05,0,0,0.05,150.7,0)" xlink:href="#G"/></g><g id="l"><use transform="matrix(0.05,0,0,0.05,0,0)" xlink:href="#y"/><use transform="matrix(0.05,0,0,0.05,10,0)" xlink:href="#q"/><use transform="matrix(0.05,0,0,0.05,20,0)" xlink:href="#q"/><use transform="matrix(0.05,0,0,0.05,30,0)" xlink:href="#w"/><use transform="matrix(0.05,0,0,0.05,40,0)" xlink:href="#z"/><use transform="matrix(0.05,0,0,0.05,45,0)" xlink:href="#w"/><use transform="matrix(0.05,0,0,0.05,55,0)" xlink:href="#x"/><use transform="matrix(0.05,0,0,0.05,62,0)" xlink:href="#u"/><use transform="matrix(0.05,0,0,0.05,72.95,0)" xlink:href="#v"/><use transform="matrix(0.05,0,0,0.05,88.95,0)" xlink:href="#w"/><use transform="matrix(0.05,0,0,0.05,98.95,0)" xlink:href="#t"/><use transform="matrix(0.05,0,0,0.05,104.9,0)" xlink:href="#w"/><use transform="matrix(0.05,0,0,0.05,114.9,0)" xlink:href="#x"/><use transform="matrix(0.05,0,0,0.05,121.9,0)" xlink:href="#B"/><use transform="matrix(0.05,0,0,0.05,131.9,0)" xlink:href="#t"/><use transform="matrix(0.05,0,0,0.05,137.85,0)" xlink:href="#x"/><use transform="matrix(0.05,0,0,0.05,144.85,0)" xlink:href="#r"/><use transform="matrix(0.05,0,0,0.05,155.79999999999998,0)" xlink:href="#s"/><use transform="matrix(0.05,0,0,0.05,165.79999999999998,0)" xlink:href="#t"/><use transform="matrix(0.05,0,0,0.05,171.74999999999997,0)" xlink:href="#w"/><use transform="matrix(0.05,0,0,0.05,181.74999999999997,0)" xlink:href="#G"/></g><path fill="#333" d="M176-78C186 10 51 31 16-35c-5-9-9-19-11-32l52-8c4 21 12 37 35 38 23 0 32-16 32-40v-130H75v-41h101v170" id="J"/><path fill="#333" d="M140-251c80 0 125 45 125 126S219 4 139 4C58 4 15-44 15-125s44-126 125-126zm-1 214c52 0 73-35 73-88 0-50-21-86-72-86-52 0-73 35-73 86s22 88 72 88" id="K"/><path fill="#333" d="M24 0v-248h52V0H24" id="L"/><path fill="#333" d="M175 0L67-191c6 58 2 128 3 191H24v-248h59L193-55c-6-58-2-129-3-193h46V0h-61" id="M"/><g id="m"><use transform="matrix(0.05,0,0,0.05,0,0)" xlink:href="#J"/><use transform="matrix(0.05,0,0,0.05,10,0)" xlink:href="#K"/><use transform="matrix(0.05,0,0,0.05,24,0)" xlink:href="#L"/><use transform="matrix(0.05,0,0,0.05,29,0)" xlink:href="#M"/></g><g id="n"><use transform="matrix(0.05,0,0,0.05,0,0)" xlink:href="#q"/><use transform="matrix(0.05,0,0,0.05,10,0)" xlink:href="#r"/><use transform="matrix(0.05,0,0,0.05,20.950000000000003,0)" xlink:href="#s"/><use transform="matrix(0.05,0,0,0.05,30.950000000000003,0)" xlink:href="#t"/><use transform="matrix(0.05,0,0,0.05,36.900000000000006,0)" xlink:href="#u"/><use transform="matrix(0.05,0,0,0.05,47.85000000000001,0)" xlink:href="#v"/><use transform="matrix(0.05,0,0,0.05,63.85,0)" xlink:href="#w"/><use transform="matrix(0.05,0,0,0.05,73.85000000000001,0)" xlink:href="#x"/><use transform="matrix(0.05,0,0,0.05,80.85000000000001,0)" xlink:href="#s"/><use transform="matrix(0.05,0,0,0.05,90.85000000000001,0)" xlink:href="#B"/><use transform="matrix(0.05,0,0,0.05,100.85000000000001,0)" xlink:href="#q"/><use transform="matrix(0.05,0,0,0.05,110.85000000000001,0)" xlink:href="#r"/><use transform="matrix(0.05,0,0,0.05,121.80000000000001,0)" xlink:href="#x"/><use transform="matrix(0.05,0,0,0.05,128.8,0)" xlink:href="#y"/><use transform="matrix(0.05,0,0,0.05,138.8,0)" xlink:href="#t"/><use transform="matrix(0.05,0,0,0.05,144.75,0)" xlink:href="#w"/><use transform="matrix(0.05,0,0,0.05,154.75,0)" xlink:href="#G"/></g><g id="o"><use transform="matrix(0.05,0,0,0.05,0,0)" xlink:href="#s"/><use transform="matrix(0.05,0,0,0.05,10,0)" xlink:href="#t"/><use transform="matrix(0.05,0,0,0.05,15.949999999999998,0)" xlink:href="#w"/><use transform="matrix(0.05,0,0,0.05,25.950000000000003,0)" xlink:href="#A"/><use transform="matrix(0.05,0,0,0.05,36.9,0)" xlink:href="#B"/><use transform="matrix(0.05,0,0,0.05,46.9,0)" xlink:href="#t"/><use transform="matrix(0.05,0,0,0.05,52.85,0)" xlink:href="#x"/><use transform="matrix(0.05,0,0,0.05,59.85,0)" xlink:href="#y"/><use transform="matrix(0.05,0,0,0.05,69.85,0)" xlink:href="#C"/><use transform="matrix(0.05,0,0,0.05,74.85,0)" xlink:href="#D"/><use transform="matrix(0.05,0,0,0.05,85.8,0)" xlink:href="#w"/><use transform="matrix(0.05,0,0,0.05,95.8,0)" xlink:href="#x"/><use transform="matrix(0.05,0,0,0.05,102.80000000000001,0)" xlink:href="#B"/><use transform="matrix(0.05,0,0,0.05,112.80000000000001,0)" xlink:href="#t"/><use transform="matrix(0.05,0,0,0.05,118.75,0)" xlink:href="#x"/><use transform="matrix(0.05,0,0,0.05,125.75,0)" xlink:href="#r"/><use transform="matrix(0.05,0,0,0.05,136.7,0)" xlink:href="#s"/><use transform="matrix(0.05,0,0,0.05,146.7,0)" xlink:href="#t"/><use transform="matrix(0.05,0,0,0.05,152.64999999999998,0)" xlink:href="#w"/><use transform="matrix(0.05,0,0,0.05,162.64999999999998,0)" xlink:href="#G"/></g><path fill="#333" d="M230 0l2-204L168 0h-37L68-204 70 0H24v-248h70l56 185 57-185h69V0h-46" id="N"/><path fill="#333" d="M24 0v-248h52v208h133V0H24" id="O"/><g id="p"><use transform="matrix(0.05,0,0,0.05,0,0)" xlink:href="#N"/><use transform="matrix(0.05,0,0,0.05,14.950000000000001,0)" xlink:href="#O"/><use transform="matrix(0.05,0,0,0.05,25.900000000000002,0)" xlink:href="#B"/><use transform="matrix(0.05,0,0,0.05,35.900000000000006,0)" xlink:href="#q"/><use transform="matrix(0.05,0,0,0.05,45.900000000000006,0)" xlink:href="#r"/><use transform="matrix(0.05,0,0,0.05,56.85,0)" xlink:href="#x"/><use transform="matrix(0.05,0,0,0.05,63.85,0)" xlink:href="#y"/><use transform="matrix(0.05,0,0,0.05,73.85000000000001,0)" xlink:href="#t"/><use transform="matrix(0.05,0,0,0.05,79.80000000000001,0)" xlink:href="#w"/><use transform="matrix(0.05,0,0,0.05,89.80000000000001,0)" xlink:href="#G"/></g></defs></g></svg>